<!DOCTYPE svg PUBLIC "-//W3C//DTD SVG 1.1//EN" "http://www.w3.org/Graphics/SVG/1.1/DTD/svg11.dtd">

<!-- Uploaded to: SVG Repo, www.svgrepo.com, Transformed by: SVG Repo Mixer Tools -->
<svg fill="#969696" opacity=".65"  height="24px" width="24px" version="1.1"  id="Layer_1" xmlns="http://www.w3.org/2000/svg" xmlns:xlink="http://www.w3.org/1999/xlink" viewBox="0 0 512.001 512.001" xml:space="preserve" stroke="#969696">

<g id="SVGRepo_bgCarrier" stroke-width="0"/>

<g id="SVGRepo_tracerCarrier" stroke-linecap="round" stroke-linejoin="round"/>

<g id="SVGRepo_iconCarrier"> <g> <g> <path d="M225.551,0c-33.162,0-60.944,23.416-67.718,54.576l-29.803-43.807c-3.164-4.651-8.426-7.436-14.051-7.436H75.554 c-9.386,0-16.995,7.609-16.995,16.995s7.609,16.995,16.995,16.995h29.431l51.257,75.34v336.559 c8.502-9.447,20.53-15.65,33.99-16.533v-91.751h14.184v-33.99h-14.184V241.29h14.184V207.3h-14.184v-62.138h14.184v-33.99h-14.184 v-3.775c0-0.023,0-0.046,0-0.069V69.309c0-19.475,15.844-35.319,35.319-35.319s35.319,15.844,35.319,35.319v6.808h33.99v-6.808 C294.859,31.092,263.768,0,225.551,0z"/> </g> </g> <g> <g> <path d="M322.99,299.394v17.617c0,6.258-5.072,11.33-11.33,11.33s-11.33-5.072-11.33-11.33v-17.617h-73.255v146.047 c6.819,6.132,11.947,14.102,14.613,23.121h154.555V299.394H322.99z"/> </g> </g> <g> <g> <path d="M322.99,98.777v16.019c0,6.258-5.072,11.33-11.33,11.33s-11.33-5.072-11.33-11.33V98.777h-73.255v169.169h169.169V98.777 H322.99z"/> </g> </g> <g> <g> <path d="M436.444,478.01h-17.541H246.756l-3.485-2.073c0.305,2.234,0.477,4.51,0.477,6.827c0,10.284-3.113,19.854-8.441,27.823 c2.132,0.927,4.437,1.414,6.778,1.414h194.362c9.386,0,16.995-7.609,16.995-16.995S445.831,478.01,436.444,478.01z"/> </g> </g> <g> <g> <path d="M193.549,455.227c-15.184,0-27.537,12.353-27.537,27.537s12.353,27.537,27.537,27.537 c15.184,0,27.537-12.353,27.537-27.537S208.734,455.227,193.549,455.227z"/> </g> </g> </g>

</svg>