<!DOCTYPE svg PUBLIC "-//W3C//DTD SVG 1.1//EN" "http://www.w3.org/Graphics/SVG/1.1/DTD/svg11.dtd">
<!-- Uploaded to: SVG Repo, www.svgrepo.com, Transformed by: SVG Repo Mixer Tools -->
<svg fill="#ffffff" version="1.1" id="Layer_1" xmlns="http://www.w3.org/2000/svg" xmlns:xlink="http://www.w3.org/1999/xlink" viewBox="0 0 512 512" xml:space="preserve" width="64px" height="64px" stroke="#ffffff">
<g id="SVGRepo_bgCarrier" stroke-width="0"/>
<g id="SVGRepo_tracerCarrier" stroke-linecap="round" stroke-linejoin="round"/>
<g id="SVGRepo_iconCarrier"> <g> <g> <polygon points="252.983,44.27 184.443,82.697 235.642,82.697 304.184,44.27 "/> </g> </g> <g> <g> <rect x="150.145" y="106.943" width="76.533" height="360.781"/> </g> </g> <g> <g> <path d="M0.55,106.947c-0.185,0-0.366-0.019-0.55-0.028V467.73h125.894V106.947H0.55z"/> </g> </g> <g> <g> <polygon points="353.773,44.27 285.232,82.697 409.16,82.697 477.702,44.27 "/> </g> </g> <g> <g> <polygon points="424.452,101.924 424.452,459.132 512,410.05 512,52.843 "/> </g> </g> <g> <g> <path d="M250.934,106.947V467.73h149.268V106.947H250.934z M341.758,415.008h-39.491c-6.697,0-12.125-5.43-12.125-12.125 s5.428-12.125,12.125-12.125h39.491c6.697,0,12.125,5.43,12.125,12.125S348.455,415.008,341.758,415.008z"/> </g> </g> <g> <g> <polygon points="107.131,44.27 38.218,82.697 134.852,82.697 203.394,44.27 "/> </g> </g> </g>
</svg>