<!DOCTYPE svg PUBLIC "-//W3C//DTD SVG 1.1//EN" "http://www.w3.org/Graphics/SVG/1.1/DTD/svg11.dtd">
<!-- Uploaded to: SVG Repo, www.svgrepo.com, Transformed by: SVG Repo Mixer Tools -->
<svg fill="#ffffff" height="64px" width="64px" version="1.1" id="Layer_1" xmlns="http://www.w3.org/2000/svg" xmlns:xlink="http://www.w3.org/1999/xlink" viewBox="0 0 512 512" xml:space="preserve" stroke="#ffffff">
<g id="SVGRepo_bgCarrier" stroke-width="0"/>
<g id="SVGRepo_tracerCarrier" stroke-linecap="round" stroke-linejoin="round"/>
<g id="SVGRepo_iconCarrier"> <g> <g> <path d="M256,0L34.298,128v256L256,512l221.702-128V128L256,0z M256,35.282l72.656,41.949L152.788,178.768l-72.656-41.949 L256,35.282z M240.722,467.897L64.854,366.359V163.283L240.722,264.82V467.897z M183.344,196.409L359.212,94.871l72.656,41.949 L256,238.358L183.344,196.409z M447.146,366.359L271.278,467.897V264.82l175.869-101.538V366.359z"/> </g> </g> <g> <g> <path d="M305.989,267.853v86.209l106.445-61.456v-86.209L305.989,267.853z M381.878,274.965l-45.333,26.173v-15.643l45.333-26.173 V274.965z"/> </g> </g> </g>
</svg>